<svg width="16" height="16" viewBox="0 0 16 16" fill="none" xmlns="http://www.w3.org/2000/svg">
<path d="M2.638 3.15606C2.61083 3.107 2.60332 3.04944 2.617 2.99506C2.63047 2.9447 2.65703 2.89881 2.694 2.86206C3.1513 2.2813 3.73467 1.81214 4.4 1.49006C5.06722 1.16431 5.80052 0.996643 6.543 1.00006C7.28263 0.996442 8.01304 1.16416 8.677 1.49006C9.34279 1.81542 9.92842 2.28393 10.392 2.86206C10.4311 2.95503 10.4502 3.05521 10.448 3.15606C10.392 3.27706 10.294 3.33806 10.154 3.33806H2.93C2.79 3.33806 2.694 3.27806 2.638 3.15606ZM14.478 7.53806C14.451 7.53806 14.432 7.54806 14.422 7.56606C14.4112 7.59267 14.4064 7.62137 14.408 7.65006V10.8001C14.408 11.2011 14.31 11.5771 14.115 11.9271C13.919 12.2771 13.65 12.5621 13.31 12.7811C12.97 13.0011 12.598 13.1191 12.197 13.1381C12.1825 13.1384 12.1681 13.1416 12.1549 13.1476C12.1417 13.1536 12.1298 13.1623 12.12 13.1731C12.1092 13.1828 12.1006 13.1947 12.0946 13.208C12.0886 13.2212 12.0853 13.2355 12.085 13.2501V14.1181C12.085 14.2334 12.0614 14.3476 12.0157 14.4536C11.9699 14.5595 11.903 14.6549 11.819 14.7341C11.7399 14.8181 11.6445 14.8851 11.5385 14.9308C11.4326 14.9766 11.3184 15.0001 11.203 15.0001H1.882C1.7666 15.0001 1.65241 14.9766 1.54647 14.9308C1.44052 14.8851 1.34507 14.8181 1.266 14.7341C1.182 14.6549 1.11506 14.5595 1.06932 14.4536C1.02357 14.3476 0.999985 14.2334 1 14.1181V5.08806C1 4.85506 1.086 4.64906 1.259 4.47206C1.33861 4.3868 1.43515 4.3191 1.54242 4.2733C1.6497 4.2275 1.76536 4.20459 1.882 4.20606H11.203C11.437 4.20606 11.642 4.29506 11.819 4.47206C11.903 4.55117 11.9699 4.64662 12.0157 4.75256C12.0614 4.85849 12.085 4.97267 12.085 5.08806V11.8501L12.141 11.9061C12.16 11.9061 12.178 11.9161 12.197 11.9341C12.216 11.9531 12.234 11.9621 12.253 11.9621C12.543 11.9341 12.78 11.8081 12.967 11.5841C13.1517 11.365 13.2511 11.0866 13.247 10.8001V7.65006C13.2478 7.62188 13.2455 7.59371 13.24 7.56606C13.235 7.54706 13.219 7.53806 13.19 7.53806C12.9798 7.39383 12.8189 7.1886 12.729 6.95006C12.6359 6.72162 12.6334 6.46627 12.722 6.23606C12.811 6.00306 12.952 5.81106 13.149 5.66206C13.346 5.51237 13.5877 5.43346 13.835 5.43806C14.095 5.43806 14.331 5.51506 14.541 5.66906C14.751 5.82306 14.884 6.01706 14.941 6.25006C15.0247 6.47689 15.0193 6.72702 14.926 6.95006C14.8358 7.18874 14.6746 7.39398 14.464 7.53806H14.478ZM5.787 12.9561C5.78713 12.8963 5.77544 12.837 5.75262 12.7818C5.72979 12.7265 5.69628 12.6763 5.654 12.6341C5.60996 12.5878 5.55662 12.5514 5.4975 12.5273C5.43838 12.5032 5.37482 12.4918 5.311 12.4941H2.75C2.6305 12.4933 2.51526 12.5384 2.428 12.6201C2.38249 12.6602 2.34637 12.7098 2.32217 12.7655C2.29798 12.8211 2.28631 12.8814 2.288 12.9421C2.288 13.0721 2.33 13.1871 2.414 13.2851C2.45524 13.3334 2.50691 13.3717 2.56511 13.3972C2.62331 13.4226 2.68652 13.4346 2.75 13.4321H5.38C5.48976 13.3965 5.5888 13.3339 5.668 13.2501C5.74503 13.1717 5.78782 13.0659 5.787 12.9561ZM11.203 6.54406C11.2067 6.46575 11.1945 6.3875 11.167 6.31408C11.1395 6.24067 11.0973 6.17363 11.043 6.11706C10.9865 6.0626 10.9195 6.02023 10.8461 5.99255C10.7727 5.96487 10.6944 5.95245 10.616 5.95606H2.456C2.37762 5.95245 2.29933 5.96487 2.22591 5.99255C2.15249 6.02023 2.08549 6.0626 2.029 6.11706C1.97454 6.17354 1.93218 6.24055 1.90449 6.31396C1.87681 6.38738 1.86439 6.46568 1.868 6.54406V9.75006C1.878 9.92706 1.933 10.0701 2.036 10.1771C2.09086 10.2318 2.15658 10.2744 2.22893 10.3021C2.30127 10.3298 2.37863 10.3421 2.456 10.3381H10.63C10.706 10.3406 10.7817 10.3276 10.8526 10.3C10.9234 10.2723 10.9879 10.2305 11.042 10.1771C11.0965 10.1206 11.1388 10.0536 11.1665 9.98015C11.1942 9.90673 11.2066 9.82844 11.203 9.75006V6.54406ZM10.392 6.89406C10.3597 6.83415 10.3078 6.78718 10.245 6.76106C10.1818 6.73002 10.1124 6.71329 10.042 6.71206H8.88C8.75973 6.71169 8.64321 6.75384 8.551 6.83106C8.50461 6.86619 8.46713 6.91173 8.4416 6.96402C8.41606 7.01631 8.40318 7.07387 8.404 7.13206C8.404 7.25306 8.448 7.36106 8.537 7.45406C8.626 7.54706 8.74 7.59406 8.88 7.59406H9.16C9.19015 7.59356 9.22029 7.5959 9.25 7.60106C9.274 7.60606 9.286 7.62006 9.286 7.64306C9.286 7.66606 9.29 7.69206 9.3 7.72006C9.31 7.74806 9.304 7.76206 9.286 7.76206L8.754 8.99406C8.72585 9.06029 8.71386 9.13227 8.719 9.20406C8.72367 9.27829 8.75574 9.34814 8.809 9.40006C8.84067 9.45922 8.89354 9.50423 8.957 9.52606C9.027 9.55406 9.095 9.56806 9.16 9.56806C9.24995 9.56913 9.33801 9.54222 9.412 9.49106C9.48599 9.44055 9.54422 9.37018 9.58 9.28806L10.447 7.24406C10.476 7.20706 10.487 7.15306 10.483 7.08306C10.4773 7.01091 10.4449 6.9435 10.392 6.89406ZM7.48 6.89406C7.564 7.07106 7.583 7.20706 7.536 7.30006L6.655 9.34406C6.62679 9.42838 6.57295 9.5018 6.501 9.55406C6.42865 9.60925 6.33999 9.6388 6.249 9.63806C6.071 9.63806 5.955 9.57806 5.899 9.45606C5.815 9.27906 5.796 9.14306 5.843 9.05006L6.361 7.81806V7.70606C6.361 7.67806 6.351 7.66206 6.333 7.65706C6.30536 7.65156 6.27718 7.64921 6.249 7.65006H5.955C5.8355 7.6508 5.72026 7.60571 5.633 7.52406C5.587 7.48281 5.55063 7.43197 5.52643 7.37512C5.50224 7.31827 5.49083 7.2568 5.493 7.19506C5.493 7.06006 5.535 6.94506 5.619 6.85206C5.66136 6.80557 5.7134 6.76894 5.77146 6.74475C5.82951 6.72056 5.89216 6.7094 5.955 6.71206H7.13C7.16246 6.69787 7.19787 6.69174 7.23322 6.69418C7.26856 6.69661 7.30279 6.70755 7.333 6.72606C7.39543 6.76498 7.44244 6.82436 7.466 6.89406H7.48ZM4.555 6.89406C4.648 7.07106 4.667 7.20706 4.611 7.30006L3.743 9.34406C3.71395 9.42961 3.65777 9.50334 3.583 9.55406C3.51195 9.60737 3.42582 9.63678 3.337 9.63806C3.16 9.63806 3.043 9.57806 2.987 9.45606C2.894 9.27906 2.876 9.14306 2.931 9.05006L3.449 7.81806V7.70606C3.449 7.67806 3.44 7.66206 3.421 7.65706C3.39335 7.65156 3.36517 7.64921 3.337 7.65006H3.043C2.9219 7.64977 2.80515 7.60492 2.715 7.52406C2.66731 7.4842 2.62976 7.43359 2.60542 7.3764C2.58108 7.31921 2.57066 7.25706 2.575 7.19506C2.57633 7.06839 2.62359 6.94651 2.708 6.85206C2.75025 6.8057 2.80213 6.76915 2.86 6.74497C2.91787 6.72078 2.98033 6.70955 3.043 6.71206H4.205C4.289 6.68406 4.359 6.68906 4.415 6.72606C4.47559 6.76882 4.52387 6.82675 4.555 6.89406Z" fill="#FFBA35"/>
</svg>
