<svg width="17" height="16" viewBox="0 0 17 16" fill="none" xmlns="http://www.w3.org/2000/svg">
<path d="M11.1829 6.23196H14.5109L12.3902 4.10996C11.7075 3.42721 10.857 2.93622 9.92438 2.68636C8.99171 2.4365 8.00971 2.43658 7.07708 2.68658C6.14445 2.93657 5.29408 3.42768 4.61143 4.11054C3.92879 4.79339 3.43794 5.64392 3.18823 6.57663M2.4909 13.096V9.76796M2.4909 9.76796H5.8189M2.4909 9.76796L4.6109 11.89C5.29365 12.5727 6.1441 13.0637 7.07676 13.3136C8.00942 13.5634 8.99143 13.5633 9.92405 13.3133C10.8567 13.0633 11.7071 12.5722 12.3897 11.8894C13.0723 11.2065 13.5632 10.356 13.8129 9.42329M14.5109 2.90396V6.23063" stroke="white" stroke-width="1.5" stroke-linecap="round" stroke-linejoin="round"/>
</svg>
