<svg width="16" height="16" viewBox="0 0 16 16" fill="none" xmlns="http://www.w3.org/2000/svg">
<path fill-rule="evenodd" clip-rule="evenodd" d="M8.01324 2C6.50724 2 5.13624 2.497 4.32424 2.904C4.25529 2.93846 4.18695 2.97414 4.11924 3.011C4.01035 3.06958 3.90393 3.13263 3.80024 3.2L4.72324 4.56L5.15824 4.732C6.85724 5.589 9.13524 5.589 10.8342 4.732L11.3272 4.476L12.2002 3.2C12.0194 3.08202 11.8314 2.97548 11.6372 2.881C10.8292 2.479 9.49024 2 8.01324 2ZM5.86624 3.539C5.53928 3.47771 5.21634 3.39656 4.89924 3.296C5.65924 2.958 6.79224 2.6 8.01324 2.6C8.79797 2.60785 9.57654 2.73947 10.3202 2.99C9.54524 3.099 8.71824 3.284 7.93024 3.512C7.31024 3.691 6.58524 3.672 5.86624 3.539ZM11.1862 5.227L11.1042 5.268C9.23525 6.211 6.75624 6.211 4.88824 5.268L4.81024 5.228C2.00324 8.31 -0.139756 14 8.01324 14C16.1672 14 13.9712 8.203 11.1862 5.227ZM7.66624 8C7.49395 8.00668 7.33093 8.07982 7.21138 8.20408C7.09184 8.32834 7.02507 8.49407 7.02507 8.6665C7.02507 8.83893 7.09184 9.00466 7.21138 9.12892C7.33093 9.25318 7.49395 9.32632 7.66624 9.333V8ZM8.33325 7.333V7H7.66724V7.333C7.31358 7.333 6.9744 7.47349 6.72432 7.72357C6.47424 7.97365 6.33374 8.31283 6.33374 8.6665C6.33374 9.02017 6.47424 9.35935 6.72432 9.60943C6.9744 9.85951 7.31358 10 7.66724 10V11.333C7.5292 11.3333 7.39446 11.2907 7.28162 11.2112C7.16878 11.1317 7.0834 11.0191 7.03724 10.889C7.02524 10.8446 7.0042 10.8032 6.97543 10.7673C6.94667 10.7314 6.91081 10.7018 6.87009 10.6804C6.82937 10.6591 6.78467 10.6463 6.7388 10.643C6.69292 10.6397 6.64686 10.6459 6.6035 10.6613C6.56014 10.6766 6.52041 10.7007 6.4868 10.7321C6.4532 10.7635 6.42644 10.8015 6.4082 10.8437C6.38996 10.8859 6.38064 10.9315 6.38082 10.9775C6.381 11.0235 6.39068 11.0689 6.40924 11.111C6.50127 11.3711 6.67167 11.5962 6.89696 11.7554C7.12226 11.9146 7.39137 12.0001 7.66724 12V12.333H8.33325V12C8.68059 11.9905 9.01051 11.8458 9.25283 11.5968C9.49514 11.3477 9.63072 11.014 9.63072 10.6665C9.63072 10.319 9.49514 9.98526 9.25283 9.73622C9.01051 9.48718 8.68059 9.34251 8.33325 9.333V8C8.47119 8.00015 8.60572 8.04288 8.71848 8.12234C8.83124 8.20181 8.91671 8.31414 8.96325 8.444C8.99268 8.52728 9.054 8.59545 9.1337 8.63352C9.21341 8.67159 9.30497 8.67644 9.38824 8.647C9.47152 8.61756 9.5397 8.55625 9.57777 8.47654C9.61584 8.39684 9.62068 8.30528 9.59124 8.222C9.49922 7.96193 9.32882 7.73678 9.10353 7.57757C8.87823 7.41836 8.60912 7.33292 8.33325 7.333ZM8.33325 10V11.333C8.42294 11.3365 8.51242 11.3218 8.59631 11.2899C8.68021 11.258 8.7568 11.2094 8.82149 11.1472C8.88618 11.0849 8.93764 11.0103 8.97279 10.9277C9.00795 10.8451 9.02607 10.7563 9.02607 10.6665C9.02607 10.5767 9.00795 10.4879 8.97279 10.4053C8.93764 10.3227 8.88618 10.248 8.82149 10.1858C8.7568 10.1236 8.68021 10.075 8.59631 10.0431C8.51242 10.0112 8.42294 9.99652 8.33325 10Z" fill="#FFBA35"/>
</svg>
