<svg width="30" height="24" viewBox="0 0 30 24" fill="none" xmlns="http://www.w3.org/2000/svg">
<g clip-path="url(#clip0_6323_1353)">
<path d="M26.25 24H3.75C1.6875 24 0 22.3125 0 20.25V3.75C0 1.6875 1.6875 0 3.75 0H26.25C28.3125 0 30 1.6875 30 3.75V20.25C30 22.3125 28.3125 24 26.25 24Z" fill="#ECEDEF"/>
<path d="M25.9502 14.5125V14.25H25.8752L25.8002 14.4375L25.7252 14.25H25.6502V14.5125H25.6877V14.325L25.7627 14.5125H25.8002L25.8752 14.325V14.5125H25.9502ZM25.5377 14.5125V14.2875H25.6127V14.25H25.3877V14.2875H25.4627V14.5125H25.5377Z" fill="#0099DF"/>
<path d="M18.0379 15.6375H11.9629V4.76245H18.0004L18.0379 15.6375Z" fill="#6C6BBD"/>
<path d="M12.3752 10.2C12.3752 8.09998 13.3502 6.07498 15.0002 4.76248C12.0002 2.39998 7.6502 2.92498 5.2877 5.92498C4.3502 7.12498 3.8252 8.66248 3.8252 10.2C3.8252 14.025 6.9002 17.1 10.7252 17.1C12.2627 17.1 13.7627 16.575 15.0002 15.6375C13.3502 14.325 12.3752 12.3375 12.3752 10.2Z" fill="#EB001B"/>
<path d="M26.175 10.2C26.175 14.025 23.0625 17.1 19.275 17.1C17.7375 17.1 16.2375 16.575 15 15.6375C18 13.275 18.525 8.92498 16.1625 5.92498C15.825 5.47498 15.4125 5.09998 15 4.76248C18 2.39998 22.35 2.92498 24.7125 5.92498C25.65 7.16248 26.175 8.66248 26.175 10.2Z" fill="#0099DF"/>
<path d="M20.0625 18.7125C20.175 18.7125 20.25 18.7125 20.3625 18.75L20.25 19.125C20.175 19.0875 20.1 19.0875 19.9875 19.0875C19.725 19.0875 19.6125 19.275 19.6125 19.575V20.5875H19.2V18.75H19.575V18.975C19.6875 18.7875 19.875 18.7125 20.0625 18.7125ZM18.5625 19.125H17.925V19.95C17.925 20.1375 18 20.25 18.1875 20.25C18.3 20.25 18.45 20.2125 18.5625 20.1375L18.675 20.475C18.525 20.55 18.3375 20.625 18.1875 20.625C17.7 20.625 17.55 20.3625 17.55 19.95V19.125H17.175V18.75H17.55V18.1875H17.9625V18.75H18.6L18.5625 19.125ZM13.4625 19.5C13.4625 19.2375 13.6875 19.05 13.95 19.05C14.2125 19.05 14.4 19.2375 14.4 19.5H13.4625ZM14.85 19.65C14.8875 19.1625 14.55 18.75 14.0625 18.675H13.9875C13.5 18.675 13.0875 19.05 13.0875 19.5375C13.0875 19.575 13.0875 19.6125 13.0875 19.6125C13.05 20.1 13.425 20.55 13.9125 20.55H14.025C14.2875 20.55 14.55 20.475 14.775 20.2875L14.5875 19.9875C14.4375 20.1 14.25 20.175 14.0625 20.175C13.8 20.2125 13.5375 19.9875 13.5 19.725H14.85C14.85 19.7625 14.85 19.725 14.85 19.65ZM16.575 19.2C16.3875 19.0875 16.2 19.05 16.0125 19.05C15.7875 19.05 15.675 19.125 15.675 19.275C15.675 19.425 15.825 19.425 15.975 19.4625L16.1625 19.5C16.575 19.575 16.8 19.725 16.8 20.0625C16.8 20.4 16.5 20.625 15.975 20.625C15.675 20.625 15.4125 20.55 15.1875 20.4L15.375 20.1C15.5625 20.2125 15.75 20.2875 15.975 20.2875C16.2375 20.2875 16.3875 20.2125 16.3875 20.0625C16.3875 19.9125 16.275 19.875 16.0875 19.875L15.9 19.8375C15.4875 19.7625 15.2625 19.575 15.2625 19.3125C15.2625 18.9375 15.5625 18.7125 16.0125 18.7125C16.275 18.7125 16.5375 18.75 16.7625 18.9L16.575 19.2ZM21.525 19.0875C21.45 19.0875 21.375 19.0875 21.3 19.125C21.225 19.1625 21.15 19.2 21.1125 19.2375C21.075 19.275 21 19.35 21 19.425C20.9625 19.5 20.9625 19.575 20.9625 19.6875C20.9625 19.7625 20.9625 19.8375 21 19.9125C21.0375 19.9875 21.075 20.0625 21.1125 20.1C21.15 20.1375 21.225 20.175 21.3 20.2125C21.45 20.2875 21.6 20.2875 21.75 20.25C21.825 20.2125 21.9 20.175 21.9375 20.1375C21.975 20.1 22.0125 20.025 22.05 19.95C22.125 19.8 22.125 19.6125 22.05 19.4625C22.0125 19.3875 21.975 19.3125 21.9375 19.275C21.9 19.2 21.825 19.1625 21.75 19.125C21.675 19.0875 21.6 19.0875 21.525 19.0875ZM21.525 18.7125C21.675 18.7125 21.7875 18.75 21.9 18.7875C22.0125 18.825 22.125 18.9 22.2 18.975C22.275 19.05 22.35 19.1625 22.3875 19.275C22.425 19.3875 22.4625 19.5375 22.4625 19.65C22.4625 19.7625 22.425 19.9125 22.3875 20.025C22.275 20.25 22.0875 20.4375 21.8625 20.55C21.75 20.5875 21.6 20.625 21.4875 20.625C21.3375 20.625 21.225 20.5875 21.075 20.55C20.9625 20.5125 20.85 20.4375 20.775 20.3625C20.7 20.2875 20.625 20.175 20.5875 20.0625C20.55 19.95 20.5125 19.8 20.5125 19.6875C20.5125 19.575 20.55 19.425 20.5875 19.3125C20.625 19.2 20.7 19.0875 20.775 19.0125C20.85 18.9375 20.9625 18.8625 21.075 18.825C21.225 18.75 21.375 18.7125 21.525 18.7125ZM11.1375 19.6875C11.1 19.3875 11.3625 19.125 11.6625 19.0875H11.7C12 19.0875 12.2625 19.3125 12.2625 19.65V19.6875C12.2625 19.9875 12.0375 20.25 11.7375 20.25H11.7C11.4 20.25 11.1375 20.025 11.1375 19.6875C11.1375 19.725 11.1375 19.725 11.1375 19.6875ZM12.6375 19.6875V18.75H12.225V18.975C12.075 18.7875 11.8875 18.7125 11.6625 18.7125C11.1375 18.7125 10.725 19.125 10.725 19.65V19.6875C10.6875 20.2125 11.1 20.625 11.5875 20.625H11.625C11.85 20.625 12.075 20.55 12.1875 20.3625V20.5875H12.6L12.6375 19.6875ZM10.3875 20.5875V19.4625C10.425 19.0875 10.125 18.75 9.75 18.75H9.675C9.4125 18.7125 9.15 18.8625 9.0375 19.0875C8.925 18.8625 8.7 18.75 8.4375 18.75C8.2125 18.75 8.025 18.825 7.875 19.0125V18.75H7.5V20.5875H7.875V19.575C7.8375 19.35 8.025 19.125 8.25 19.0875H8.325C8.5875 19.0875 8.7375 19.275 8.7375 19.575V20.5875H9.15V19.575C9.1125 19.35 9.3 19.125 9.525 19.0875H9.6C9.8625 19.0875 10.0125 19.275 10.0125 19.575V20.5875H10.3875ZM22.95 20.4375L23.025 20.475V20.4375H22.9875H22.95ZM22.9875 20.4375L23.025 20.5125H22.9875L23.025 20.5875H22.9875L22.9125 20.5125V20.5875H22.875V20.4L22.9875 20.4375ZM22.9875 20.6625C23.025 20.6625 23.025 20.6625 23.0625 20.6625C23.0625 20.6625 23.1 20.6625 23.1 20.625L23.1375 20.5875V20.55C23.1375 20.55 23.1375 20.5125 23.1375 20.475C23.1375 20.475 23.1375 20.4375 23.1 20.4375L23.0625 20.4C23.025 20.4 22.9875 20.4 22.95 20.4C22.95 20.4 22.9125 20.4 22.9125 20.4375L22.875 20.475C22.875 20.5125 22.875 20.55 22.875 20.5875V20.625L22.9125 20.6625C22.95 20.6625 22.95 20.6625 22.9875 20.6625ZM22.9875 20.325C23.025 20.325 23.025 20.325 23.0625 20.325C23.1 20.325 23.1 20.3625 23.1375 20.3625C23.1375 20.3625 23.175 20.4 23.175 20.4375C23.175 20.475 23.175 20.475 23.175 20.5125C23.175 20.55 23.175 20.55 23.175 20.5875C23.175 20.625 23.1375 20.625 23.1375 20.625C23.1375 20.625 23.1 20.6625 23.0625 20.6625C23.025 20.6625 23.025 20.6625 22.9875 20.6625C22.95 20.6625 22.95 20.6625 22.9125 20.6625C22.875 20.6625 22.875 20.625 22.8375 20.625C22.8375 20.625 22.8 20.5875 22.8 20.55C22.8 20.5125 22.8 20.5125 22.8 20.475C22.8 20.4375 22.8 20.4375 22.8 20.4C22.8 20.3625 22.8375 20.3625 22.8375 20.325L22.9125 20.2875C22.9125 20.325 22.95 20.325 22.9875 20.325Z" fill="#231F20"/>
</g>
<defs>
<clipPath id="clip0_6323_1353">
<rect width="30" height="24" fill="white"/>
</clipPath>
</defs>
</svg>
