<svg width="30" height="24" viewBox="0 0 30 24" fill="none" xmlns="http://www.w3.org/2000/svg">
<g clip-path="url(#clip0_6323_1360)">
<path d="M26.25 24H3.75C1.6875 24 0 22.3125 0 20.25V3.75C0 1.6875 1.6875 0 3.75 0H26.25C28.3125 0 30 1.6875 30 3.75V20.25C30 22.3125 28.3125 24 26.25 24Z" fill="#ECEDEF"/>
<path d="M25.8002 20.4371L25.8377 20.5121H25.8002L25.8752 20.6246H25.8377L25.7627 20.5496V20.6246H25.7252V20.4371H25.8002ZM25.8002 20.6621C25.8377 20.6621 25.8377 20.6621 25.8752 20.6621V20.6246L25.9127 20.5871C25.9127 20.5496 25.9127 20.5121 25.9127 20.4746C25.9127 20.4746 25.9127 20.4371 25.8752 20.4371L25.8377 20.3996H25.7252C25.7252 20.3996 25.6877 20.3996 25.6877 20.4371L25.6502 20.4746C25.6502 20.5121 25.6502 20.5496 25.6502 20.5871C25.6502 20.5871 25.6502 20.6246 25.6877 20.6246L25.7252 20.6621C25.7252 20.6621 25.7627 20.6621 25.8002 20.6621ZM25.7627 20.3246C25.8002 20.3246 25.8002 20.3246 25.8377 20.3246C25.8752 20.3246 25.8752 20.3621 25.9127 20.3621C25.9127 20.3996 25.9502 20.3996 25.9502 20.4371C25.9502 20.4746 25.9502 20.4746 25.9502 20.5121C25.9502 20.5496 25.9502 20.5496 25.9502 20.5871C25.9502 20.6246 25.9127 20.6246 25.9127 20.6621C25.9127 20.6621 25.8752 20.6996 25.8377 20.6996C25.8002 20.6996 25.8002 20.6996 25.7627 20.6996C25.7252 20.6996 25.7252 20.6996 25.6877 20.6996C25.6502 20.6996 25.6502 20.6621 25.6502 20.6621C25.6502 20.6621 25.6127 20.6246 25.6127 20.5871C25.6127 20.5496 25.6127 20.5496 25.6127 20.5121C25.6127 20.4746 25.6127 20.4746 25.6127 20.4371C25.6127 20.3996 25.6502 20.3996 25.6502 20.3621C25.6502 20.3621 25.6877 20.3246 25.7627 20.3246ZM8.6252 19.6871C8.6252 19.3871 8.8502 19.1246 9.1502 19.1246H9.1877C9.4877 19.1246 9.7502 19.3496 9.7502 19.6496V19.6871C9.7877 19.9871 9.5252 20.2496 9.2252 20.2871H9.1877C8.8877 20.2871 8.6252 20.0621 8.6252 19.7621C8.6252 19.7246 8.6252 19.7246 8.6252 19.6871ZM10.1252 19.6871V18.7496H9.7127V18.9746C9.5627 18.7871 9.3377 18.7121 9.1127 18.7121C8.5877 18.7121 8.1752 19.1246 8.1752 19.6496V19.6871C8.1377 20.2121 8.5502 20.6246 9.0377 20.6621H9.0752C9.3002 20.6621 9.5252 20.5871 9.6752 20.3996V20.6246H10.1252V19.6871ZM23.6252 19.6871C23.6252 19.3871 23.8502 19.1246 24.1502 19.1246H24.1877C24.4877 19.1246 24.7502 19.3496 24.7502 19.6496V19.6871C24.7877 19.9871 24.5252 20.2496 24.2252 20.2871H24.1877C23.8877 20.2871 23.6252 20.0621 23.6252 19.7621C23.6252 19.7621 23.6252 19.7246 23.6252 19.6871ZM25.1252 19.6871V18.0371H24.7127V19.0121C24.5627 18.8246 24.3377 18.7496 24.1127 18.7496C23.5877 18.7496 23.1752 19.1621 23.1752 19.6871V19.7246C23.1377 20.2496 23.5502 20.6621 24.0377 20.6996H24.0752C24.3002 20.6996 24.5252 20.6246 24.6752 20.4371V20.6246H25.1252V19.6871ZM15.0752 19.0871C15.3377 19.0871 15.5252 19.2746 15.5252 19.5371H14.5877C14.5877 19.2746 14.8127 19.0871 15.0752 19.0871ZM15.0752 18.7121C14.5877 18.7121 14.1752 19.0871 14.1377 19.5746C14.1377 19.6121 14.1377 19.6496 14.1377 19.6496C14.1002 20.1371 14.4752 20.5871 14.9627 20.6246H15.0752C15.3377 20.6246 15.6002 20.5496 15.8252 20.3621L15.6377 20.0621C15.4877 20.1746 15.3002 20.2496 15.1127 20.2496C14.8502 20.2871 14.5877 20.0621 14.5502 19.7996H15.9002C15.9002 19.7621 15.9002 19.6871 15.9002 19.6496C15.9377 19.1621 15.6002 18.7496 15.0752 18.7121ZM19.9127 19.7246C19.8752 19.4246 20.1002 19.1621 20.4377 19.1246H20.4752C20.7752 19.1246 21.0377 19.3496 21.0377 19.6871V19.7246C21.0752 20.0246 20.8127 20.2871 20.5127 20.3246H20.4752C20.1752 20.3246 19.9127 20.0996 19.9127 19.7996V19.7246ZM21.4127 19.7246V18.7871H21.0002V19.0121C20.8502 18.8246 20.6252 18.7496 20.4377 18.7496C19.9502 18.7496 19.5377 19.1621 19.5002 19.6496V19.6871C19.4627 20.2121 19.8752 20.6246 20.3627 20.6621H20.4002C20.6252 20.6621 20.8502 20.5496 20.9627 20.3996V20.6246H21.3752L21.4127 19.7246ZM17.6627 19.7246C17.6252 20.2496 18.0377 20.6621 18.5627 20.6996H18.6377C18.8627 20.6996 19.1252 20.6246 19.3127 20.4746L19.1252 20.1371C18.9752 20.2496 18.8252 20.2871 18.6377 20.2871C18.3377 20.2871 18.0752 20.0621 18.0752 19.7621V19.7246C18.0377 19.4246 18.3002 19.1621 18.5627 19.1621H18.6002C18.7877 19.1621 18.9377 19.2371 19.0877 19.3121L19.2752 18.9746C19.0877 18.8246 18.8627 18.7496 18.6002 18.7496C18.0752 18.7121 17.6627 19.1246 17.6252 19.6121L17.6627 19.7246ZM22.8002 18.7496C22.6127 18.7496 22.4252 18.8621 22.3127 19.0121V18.7871H21.9377V20.6246H22.3502V19.5746C22.3502 19.2746 22.4627 19.0871 22.7252 19.0871C22.8002 19.0871 22.9127 19.0871 22.9877 19.1246L23.1002 18.7496C22.9877 18.7496 22.8752 18.7496 22.8002 18.7496ZM12.0752 18.9371C11.8502 18.7871 11.5877 18.7496 11.3252 18.7496C10.8752 18.7496 10.5752 18.9746 10.5752 19.3496C10.5752 19.6496 10.8002 19.8371 11.2127 19.8746L11.4002 19.9121C11.6252 19.9496 11.7377 19.9871 11.7377 20.0996C11.7377 20.2121 11.5877 20.3246 11.3252 20.3246C11.1002 20.3246 10.8752 20.2496 10.7252 20.1371L10.5002 20.4371C10.7252 20.5871 11.0252 20.6621 11.2877 20.6621C11.8127 20.6621 12.1127 20.3996 12.1127 20.0621C12.1127 19.7246 11.8877 19.5746 11.4752 19.4996H11.2877C11.1002 19.4621 10.9877 19.4246 10.9877 19.3121C10.9877 19.1996 11.1377 19.0871 11.3252 19.0871C11.5127 19.0871 11.7377 19.1246 11.8877 19.2371L12.0752 18.9371ZM17.2502 18.7496C17.0627 18.7496 16.8752 18.8621 16.7627 19.0121V18.7871H16.3502V20.6246H16.7627V19.5746C16.7627 19.2746 16.9127 19.0871 17.1377 19.0871C17.2127 19.0871 17.3252 19.0871 17.4002 19.1246L17.5127 18.7496C17.4377 18.7496 17.3627 18.7496 17.2502 18.7496ZM13.8377 18.7871H13.1627V18.2246H12.7502V18.7871H12.3752V19.1621H12.7502V19.9871C12.7502 20.3996 12.9002 20.6621 13.3877 20.6621C13.5752 20.6621 13.7252 20.6246 13.8752 20.5121L13.7627 20.1746C13.6502 20.2496 13.5377 20.2871 13.3877 20.2871C13.2002 20.2871 13.1252 20.1746 13.1252 19.9871V19.1621H13.7627V18.7871H13.8377ZM7.8752 20.6246V19.4621C7.8752 19.0871 7.6127 18.7496 7.2377 18.7496H7.1252C6.8627 18.7496 6.6002 18.8621 6.4877 19.0871C6.3752 18.8621 6.1502 18.7496 5.8877 18.7496C5.6627 18.7496 5.4752 18.8621 5.3627 19.0121V18.7871H4.9502V20.6246H5.3627V19.6121C5.3252 19.3871 5.5127 19.1621 5.7377 19.1246H5.8127C6.0752 19.1246 6.2252 19.3121 6.2252 19.6121V20.6246H6.6377V19.6121C6.6002 19.3871 6.7877 19.1621 7.0127 19.1246H7.0877C7.3502 19.1246 7.5002 19.3121 7.5002 19.6121V20.6246H7.8752Z" fill="#231F20"/>
<path d="M25.9877 14.5125V14.25H25.9127L25.8377 14.4375L25.7627 14.25H25.6877V14.5125H25.7252V14.325L25.8002 14.5125H25.8752L25.9502 14.325V14.5125H25.9877ZM25.5377 14.5125V14.2875H25.6127V14.25H25.3877V14.2875H25.5002L25.5377 14.5125Z" fill="#F79410"/>
<path d="M18.0379 15.675H11.9629V4.80005H18.0379V15.675Z" fill="#FF5F00"/>
<path d="M12.3752 10.2C12.3752 8.06248 13.3502 6.07498 15.0002 4.76248C12.0002 2.39998 7.6502 2.92498 5.2877 5.92498C4.3502 7.12498 3.8252 8.66248 3.8252 10.2C3.8252 14.025 6.9377 17.1375 10.7627 17.1375C12.3002 17.1375 13.8377 16.6125 15.0377 15.6375C13.3502 14.325 12.3752 12.3 12.3752 10.2Z" fill="#EB001B"/>
<path d="M26.2125 10.1996C26.2125 14.0246 23.1 17.1371 19.275 17.1371C17.7375 17.1371 16.2 16.6121 15 15.6746C18 13.3121 18.525 8.96209 16.125 5.92459C15.7875 5.51209 15.4125 5.09959 15 4.79959C18 2.43709 22.35 2.96209 24.7125 5.96209C25.6875 7.16209 26.2125 8.66209 26.2125 10.1996Z" fill="#F79E1B"/>
</g>
<defs>
<clipPath id="clip0_6323_1360">
<rect width="30" height="24" fill="white"/>
</clipPath>
</defs>
</svg>
