<svg width="30" height="24" viewBox="0 0 30 24" fill="none" xmlns="http://www.w3.org/2000/svg">
<g clip-path="url(#clip0_6323_1373)">
<path d="M26.25 24H3.75C1.6875 24 0 22.3125 0 20.25V3.75C0 1.6875 1.6875 0 3.75 0H26.25C28.3125 0 30 1.6875 30 3.75V20.25C30 22.3125 28.3125 24 26.25 24Z" fill="#68BC45"/>
<g opacity="0.21">
<path d="M26.2502 12.4125C25.9502 12.5625 25.6127 12.6 25.2752 12.5625L25.4627 11.55L25.5002 11.3625V11.325H25.6127C25.8752 11.2875 26.1377 11.3625 26.3627 11.5125C26.5877 11.8125 26.5502 12.1875 26.2502 12.4125ZM8.5127 13.9875H6.1877C6.2252 13.7625 6.2627 13.5375 6.3002 13.3125C6.3002 13.275 6.3002 13.2375 6.3377 13.2C6.3377 13.2 6.3377 13.2 6.3752 13.2H7.6877C7.72519 13.2 7.76269 13.2 7.80019 13.2C7.80019 13.1625 7.8377 13.125 7.8377 13.0875L7.98769 12.3H6.5627C6.6002 12.075 6.6377 11.85 6.6752 11.625C6.6752 11.5875 6.6752 11.5125 6.7127 11.5125C6.7502 11.5125 6.7502 11.5125 6.7877 11.5125H9.0002C8.9627 11.775 8.8877 12.075 8.85019 12.3375C8.7752 12.7875 8.66269 13.2375 8.5877 13.6875C8.55019 13.7625 8.5127 13.875 8.5127 13.9875ZM27.4877 10.7625C27.0377 10.5 26.4752 10.3875 25.9502 10.425H24.3002H24.2252C24.2252 10.425 24.2252 10.5 24.1877 10.5375C24.1502 10.65 24.1502 10.7625 24.1127 10.875C24.0377 11.2125 24.0002 11.5875 23.9252 11.925C23.8502 12.2625 23.7752 12.7125 23.7002 13.0875C23.6627 13.35 23.5877 13.6125 23.5502 13.875C23.5502 13.875 23.5502 13.95 23.5127 13.9875C23.4752 14.025 23.4377 13.9875 23.4377 13.9875H21.2252C21.2627 13.7625 21.3002 13.5375 21.3377 13.3125C21.3377 13.275 21.3377 13.2375 21.3752 13.2C21.3752 13.2 21.3752 13.2 21.4127 13.2H22.7627C22.8002 13.2 22.8002 13.0875 22.8002 13.05C22.8377 12.7875 22.8752 12.5625 22.9502 12.3H21.5627C21.6002 12.075 21.6377 11.8125 21.6752 11.5875V11.5125H21.7127H23.0627H23.1002V11.4375C23.1002 11.4375 23.1377 11.325 23.1377 11.25C23.1752 10.9875 23.2127 10.725 23.2877 10.4625H20.4377H20.4002C20.4002 10.5 20.3627 10.5375 20.3627 10.575L20.3252 10.8375C20.2877 11.1375 20.2127 11.4375 20.1752 11.7375L19.8377 13.6125C19.8377 13.6875 19.8002 13.725 19.8002 13.8V13.8375H18.7502C18.8252 13.4625 18.9002 13.0875 18.9752 12.7125L19.3127 10.875C19.3502 10.725 19.3502 10.6125 19.3877 10.4625H17.8877V10.5C17.8502 10.65 17.8127 10.8 17.8127 10.95C17.7002 11.475 17.6252 12.0375 17.5127 12.5625C17.4377 12.975 17.3627 13.3875 17.2877 13.7625C17.2877 13.8 17.2877 13.8 17.2877 13.8375H16.2002C16.2752 13.4625 16.3502 13.0875 16.4252 12.7125L16.7627 10.875C16.8002 10.725 16.8002 10.575 16.8377 10.4625H15.4127C15.3752 10.4625 15.3377 10.4625 15.3002 10.4625C15.2627 10.4625 15.3002 10.5 15.2627 10.5375C15.2627 10.6125 15.2252 10.6875 15.2252 10.8C15.1877 11.1 15.1127 11.3625 15.0752 11.6625C14.9627 12.3 14.8502 12.975 14.7002 13.6125C14.7002 13.725 14.6627 13.8 14.6627 13.9125C14.6627 13.95 14.6627 14.025 14.6252 14.025C14.5877 14.025 14.5127 14.025 14.5127 14.025H12.3377C12.3752 13.8 12.4127 13.575 12.4502 13.35C12.4502 13.3125 12.4502 13.275 12.4877 13.2375C12.4877 13.2375 12.4877 13.2375 12.5252 13.2375H13.8752C13.9127 13.2375 13.9127 13.125 13.9127 13.0875C13.9502 12.825 14.0252 12.5625 14.0627 12.3375H12.6752C12.7127 12.1125 12.7502 11.85 12.7877 11.625C12.7877 11.5875 12.7877 11.55 12.8252 11.55H12.8627H14.2502V11.475C14.2502 11.475 14.2877 11.3625 14.2877 11.2875C14.3252 11.025 14.3627 10.7625 14.4377 10.5H5.4002C5.3627 10.5 5.3627 10.5 5.3627 10.575C5.2877 11.025 5.2127 11.475 5.1377 11.8875C5.0627 12.3375 4.9877 12.7875 4.8752 13.2375C4.8752 13.275 4.8752 13.275 4.8752 13.3125L4.6502 12.675C4.5002 12.2625 4.3502 11.85 4.2002 11.4375C4.0877 11.1375 3.9752 10.8375 3.8627 10.5375C3.8627 10.5 3.8627 10.5 3.8252 10.4625H3.7877H2.3627C2.3252 10.4625 2.2877 10.4625 2.2502 10.4625C2.2502 10.4625 2.2502 10.5375 2.2127 10.5375C2.1752 10.65 2.1752 10.725 2.1377 10.8375C2.0627 11.175 1.9877 11.55 1.9502 11.8875C1.8752 12.3 1.8002 12.75 1.7252 13.2C1.6502 13.65 1.5752 13.9875 1.5002 14.4C1.4627 14.625 1.4252 14.85 1.3877 15.0375C1.3877 15.0375 1.3877 15.0375 1.3877 15.075H2.8127C2.8502 15.075 2.8502 15.075 2.8877 15.075V15.0375L3.0377 14.175C3.1127 13.7625 3.1877 13.35 3.2627 12.9375C3.3002 12.75 3.3377 12.6 3.3752 12.4125C3.3752 12.375 3.3752 12.3 3.3752 12.2625C3.3752 12.225 3.3752 12.1875 3.3752 12.1875C3.4877 12.5625 3.6377 12.9 3.7502 13.275C3.9377 13.8 4.1252 14.325 4.3127 14.85C4.3502 14.925 4.3502 14.9625 4.3877 15.0375V15.075L4.5002 15H9.75019H9.78769C9.78769 15 9.78769 14.925 9.78769 14.8875C9.86269 14.4 9.97519 13.95 10.0502 13.4625C10.1627 12.9 10.2377 12.3375 10.3502 11.8125C10.3502 11.7375 10.3877 11.6625 10.3877 11.5875C10.3877 11.55 10.3877 11.5125 10.4252 11.475C10.4252 11.4375 10.5377 11.475 10.5752 11.475H11.2877L11.0627 12.675C10.9502 13.3125 10.8377 13.95 10.7252 14.5875C10.6877 14.7375 10.6877 14.8875 10.6502 15H24.7877H24.8252C24.8252 15 24.8627 14.925 24.8627 14.8875L25.0127 13.95L25.2002 12.9375L25.2377 12.75C25.3877 13.275 25.5377 13.8 25.7252 14.325C25.7627 14.475 25.8002 14.625 25.8377 14.7375C25.8377 14.775 25.8752 14.85 25.8752 14.8875C25.8752 14.925 25.8752 14.925 25.9127 14.9625C25.9502 15 26.0252 14.9625 26.0627 14.9625H27.4127C27.3377 14.775 27.2627 14.55 27.1877 14.3625C27.0752 14.025 26.9252 13.725 26.8127 13.3875C26.7752 13.3125 26.7377 13.2375 26.7377 13.1625C26.8877 13.125 27.0377 13.0875 27.1877 13.0125C27.3752 12.9375 27.5627 12.7875 27.7127 12.6C27.8627 12.4125 27.9377 12.1875 27.9752 11.9625C28.0127 11.7375 27.9752 11.5125 27.9377 11.2875C27.8252 11.1 27.6752 10.9125 27.4877 10.7625ZM28.7252 14.475C28.8377 14.475 29.1377 14.5125 29.1002 14.325C29.0627 14.1375 28.8002 14.25 28.7252 14.25C28.7252 14.325 28.7252 14.4 28.7252 14.475ZM28.6502 14.8875C28.6502 14.6625 28.6127 14.4 28.6127 14.175H28.9502C29.0627 14.175 29.1752 14.175 29.2127 14.325C29.2502 14.475 29.1377 14.55 29.0252 14.5875C29.1377 14.625 29.2127 14.775 29.3252 14.8875H29.2127C29.1752 14.8875 29.1752 14.85 29.1752 14.85C29.1377 14.775 29.0627 14.7 28.9877 14.625C28.9502 14.5875 28.9127 14.5875 28.8752 14.5875H28.8002V14.6625C28.8002 14.6625 28.8002 14.7375 28.8002 14.8125C28.8002 14.85 28.8002 14.8875 28.8002 14.8875C28.7252 14.8875 28.6877 14.8875 28.6502 14.8875ZM28.3502 14.5125C28.3127 14.2125 28.5752 13.95 28.8752 13.9125C29.1752 13.875 29.4377 14.1375 29.4752 14.4375C29.5127 14.7375 29.2502 15 28.9502 15.0375C28.9127 15.0375 28.8752 15.0375 28.8002 15.0375C28.5752 15 28.3877 14.775 28.3502 14.5125ZM28.8752 13.8375C28.5002 13.875 28.2002 14.175 28.2377 14.55C28.2752 14.925 28.5752 15.225 28.9502 15.1875C29.3252 15.15 29.6252 14.85 29.5877 14.475C29.5877 14.1 29.2502 13.8 28.8752 13.8375Z" fill="#0D0F0B"/>
</g>
<path d="M25.9504 11.9625C25.6504 12.1125 25.3129 12.15 24.9754 12.1125L25.1629 11.1L25.2004 10.9125V10.875C25.2379 10.875 25.2754 10.875 25.3129 10.875C25.5754 10.8375 25.8379 10.9125 26.0629 11.0625C26.2504 11.325 26.2129 11.7375 25.9504 11.9625C25.9504 11.925 25.9504 11.925 25.9504 11.9625ZM8.17539 13.5H5.85039C5.88789 13.275 5.92539 13.05 5.96289 12.825C5.96289 12.7875 5.96289 12.75 6.00039 12.7125H6.03789C6.11289 12.7125 6.22539 12.7125 6.33789 12.7125H7.46289C7.46289 12.675 7.46289 12.6375 7.50039 12.6L7.65039 11.85H6.22539C6.26289 11.625 6.30039 11.4 6.33789 11.175C6.33789 11.1375 6.33789 11.0625 6.37539 11.0625C6.41289 11.0625 6.41289 11.0625 6.45039 11.0625H8.62539L8.47539 11.8875C8.40039 12.3375 8.32539 12.7875 8.21289 13.2375C8.21289 13.3125 8.21289 13.3875 8.17539 13.5ZM27.1879 10.3125C26.7379 10.05 26.1754 9.93755 25.6504 9.97505H24.0004H23.9254C23.9254 9.97505 23.9254 10.0875 23.8879 10.0875C23.8504 10.2 23.8504 10.3125 23.8129 10.425C23.7379 10.7625 23.6629 11.1375 23.6254 11.475C23.5879 11.8125 23.4754 12.2625 23.4004 12.6375C23.3629 12.9 23.2879 13.1625 23.2504 13.425C23.2504 13.425 23.2504 13.5 23.2504 13.5375C23.2504 13.575 23.1754 13.5375 23.1754 13.5375H20.9629C21.0004 13.3125 21.0379 13.0875 21.0754 12.8625C21.0754 12.825 21.0754 12.7875 21.1129 12.75C21.1129 12.75 21.1129 12.75 21.1504 12.75H22.5004C22.5379 12.75 22.5379 12.6375 22.5379 12.6C22.5754 12.3375 22.6129 12.1125 22.6879 11.85H21.3004C21.3379 11.625 21.3754 11.4 21.4129 11.1375V11.0625H21.4504H22.8004H22.8379V10.9875C22.8379 10.9125 22.8754 10.875 22.8754 10.8C22.9129 10.5375 22.9879 10.275 23.0254 10.0125H20.1379C20.1379 10.05 20.1379 10.0875 20.1379 10.0875L20.1004 10.35C20.0254 10.65 19.9879 10.95 19.9504 11.25L19.6129 13.125C19.6129 13.2 19.5754 13.2375 19.5754 13.3125V13.35H18.4879C18.5629 12.975 18.6379 12.6 18.7129 12.225L19.0504 10.3875C19.0879 10.2375 19.0879 10.125 19.1254 9.97505H17.6254V10.0125C17.5879 10.1625 17.5504 10.3125 17.5504 10.4625C17.4379 10.9875 17.3629 11.5125 17.2504 12.0375C17.1754 12.45 17.1004 12.8625 17.0254 13.275C17.0254 13.3125 17.0254 13.3125 17.0254 13.35H15.9379C16.0129 12.975 16.0879 12.6 16.1629 12.225L16.5004 10.425C16.5379 10.275 16.5379 10.125 16.5754 10.0125H15.1504H15.0754C15.0754 10.0125 15.0754 10.05 15.0379 10.0875C15.0379 10.1625 15.0004 10.2375 15.0004 10.35C14.9629 10.65 14.8879 10.9125 14.8504 11.2125C14.7379 11.85 14.5879 12.525 14.4754 13.1625C14.4754 13.275 14.4379 13.35 14.4379 13.4625C14.4379 13.5 14.4379 13.575 14.4004 13.575C14.3629 13.575 14.2879 13.575 14.2879 13.575H12.0004C12.0379 13.35 12.0754 13.125 12.1129 12.9C12.1129 12.8625 12.1129 12.825 12.1504 12.7875H13.5004C13.5379 12.7875 13.5379 12.675 13.5379 12.6375C13.5754 12.375 13.6129 12.15 13.6879 11.8875H12.3004C12.3379 11.6625 12.3754 11.4 12.4129 11.175C12.4129 11.1375 12.4129 11.1 12.4129 11.1H12.4504H13.8004H13.8379C13.8379 11.1 13.8379 11.0625 13.8379 11.025C13.8379 10.9875 13.8754 10.9125 13.8754 10.8375C13.9129 10.575 13.9504 10.3125 14.0254 10.05H5.02539C4.98789 10.05 4.98789 10.05 4.98789 10.125C4.91289 10.575 4.83789 11.025 4.76289 11.4375C4.68789 11.85 4.61289 12.3 4.50039 12.75V12.825L4.27539 12.1875C4.12539 11.775 3.97539 11.3625 3.82539 10.9875C3.71289 10.6875 3.60039 10.3875 3.48789 10.0875C3.48789 10.05 3.48789 10.05 3.45039 10.0125H2.06289C2.02539 10.0125 1.98789 10.0125 1.95039 10.0125C1.95039 10.0125 1.95039 10.0875 1.91289 10.0875C1.87539 10.2 1.87539 10.3125 1.83789 10.425C1.76289 10.7625 1.72539 11.1375 1.65039 11.475C1.57539 11.8875 1.50039 12.3375 1.42539 12.75C1.35039 13.1625 1.27539 13.4625 1.20039 13.875C1.16289 14.1 1.12539 14.2875 1.08789 14.5125C1.08789 14.5125 1.08789 14.5125 1.08789 14.55H2.51289C2.55039 14.55 2.55039 14.55 2.58789 14.55V14.5125L2.73789 13.65C2.81289 13.2375 2.88789 12.825 2.96289 12.4125C3.00039 12.2625 3.03789 12.075 3.03789 11.925C3.03789 11.8875 3.03789 11.8125 3.07539 11.775C3.07539 11.7375 3.07539 11.7375 3.07539 11.7C3.18789 12.075 3.30039 12.4125 3.45039 12.75C3.63789 13.275 3.82539 13.8 4.01289 14.325C4.05039 14.4 4.05039 14.4375 4.08789 14.5125C4.12539 14.5875 4.08789 14.55 4.08789 14.55H4.16289H9.48789C9.48789 14.55 9.48789 14.475 9.48789 14.4375C9.56289 13.95 9.67539 13.5 9.75039 13.0125C9.86289 12.45 9.93789 11.8875 10.0504 11.325C10.0504 11.25 10.0879 11.175 10.0879 11.1C10.0879 11.0625 10.0879 11.025 10.1254 10.9875C10.1254 10.95 10.2379 10.9875 10.2754 10.9875H10.9879L10.7629 12.1875C10.6504 12.825 10.5379 13.4625 10.4254 14.1C10.3879 14.25 10.3879 14.4 10.3504 14.55H24.4879C24.4879 14.55 24.5254 14.55 24.5629 14.55C24.6004 14.55 24.5629 14.475 24.6004 14.475L24.7879 13.5375L24.9754 12.525L25.0129 12.3375C25.1629 12.8625 25.3129 13.3875 25.5004 13.9125C25.5379 14.0625 25.5754 14.2125 25.6129 14.325C25.6129 14.3625 25.6504 14.4 25.6504 14.475C25.6504 14.5125 25.6504 14.5125 25.6879 14.55C25.7254 14.5875 25.8004 14.55 25.8379 14.55H27.1879C27.1129 14.3625 27.0379 14.1375 26.9629 13.9125C26.8504 13.575 26.7004 13.2375 26.5879 12.9375C26.5504 12.8625 26.5129 12.7875 26.5129 12.7125C26.6629 12.675 26.8129 12.6375 26.9629 12.6C27.1504 12.525 27.3379 12.375 27.4879 12.1875C27.6379 12 27.7129 11.775 27.7504 11.55C27.7879 11.325 27.7504 11.0625 27.7129 10.8375C27.5254 10.6125 27.3754 10.4625 27.1879 10.3125Z" fill="white"/>
</g>
<defs>
<clipPath id="clip0_6323_1373">
<rect width="30" height="24" fill="white"/>
</clipPath>
</defs>
</svg>
