<svg width="30" height="24" viewBox="0 0 30 24" fill="none" xmlns="http://www.w3.org/2000/svg">
<g clip-path="url(#clip0_6323_1381)">
<path d="M26.25 24H3.75C1.6875 24 0 22.3125 0 20.25V3.75C0 1.6875 1.6875 0 3.75 0H26.25C28.3125 0 30 1.6875 30 3.75V20.25C30 22.3125 28.3125 24 26.25 24Z" fill="url(#paint0_linear_6323_1381)"/>
<path d="M18.075 16.0125H16.6875C16.6125 16.0125 16.5 16.0875 16.5 16.1625L15.9375 19.6875C15.9375 19.7625 15.975 19.8 16.05 19.8375H16.7625C16.8375 19.8375 16.875 19.8 16.9125 19.725L17.0625 18.75C17.0625 18.675 17.1375 18.6 17.25 18.6H17.7C18.4875 18.675 19.1625 18.15 19.2375 17.3625C19.2375 17.325 19.2375 17.325 19.2375 17.2875C19.3125 16.9875 19.2375 16.65 19.05 16.3875C18.825 16.125 18.45 16.0125 18.075 16.0125ZM18.225 17.325C18.15 17.8125 17.775 17.8125 17.4 17.8125H17.2125L17.3625 16.875C17.3625 16.8375 17.4 16.7625 17.475 16.7625H17.5875C17.85 16.7625 18.075 16.7625 18.1875 16.9125C18.2625 17.025 18.2625 17.175 18.225 17.325ZM8.2875 16.0125H6.9375C6.8625 16.0125 6.75 16.0875 6.75 16.1625L6.1875 19.6875C6.1875 19.7625 6.225 19.8 6.2625 19.8375H6.9375C7.0125 19.8375 7.125 19.7625 7.125 19.6875L7.275 18.75C7.275 18.675 7.35 18.6 7.4625 18.6H7.9125C8.7 18.675 9.375 18.15 9.45 17.3625C9.45 17.325 9.45 17.325 9.45 17.2875C9.525 16.9875 9.45 16.65 9.2625 16.3875C9.0375 16.125 8.6625 16.0125 8.2875 16.0125ZM8.475 17.325C8.4 17.8125 8.025 17.8125 7.65 17.8125H7.4625L7.6125 16.875C7.6125 16.8375 7.65 16.7625 7.725 16.7625H7.8C8.025 16.7625 8.2875 16.7625 8.4 16.9125C8.475 17.025 8.475 17.175 8.475 17.325ZM12.375 17.2875H11.7C11.625 17.2875 11.5875 17.325 11.5875 17.4L11.55 17.5875L11.5125 17.5125C11.325 17.325 11.025 17.2125 10.725 17.25C9.975 17.25 9.3375 17.8125 9.2625 18.5625C9.1875 18.9 9.2625 19.275 9.4875 19.575C9.7125 19.8 10.0125 19.9125 10.3125 19.9125C10.65 19.9125 10.9875 19.8 11.2125 19.5375L11.25 19.725C11.25 19.8 11.2875 19.8375 11.3625 19.8375H11.9625C12.0375 19.8375 12.15 19.7625 12.15 19.6875L12.525 17.4375C12.525 17.3625 12.4875 17.325 12.45 17.325L12.375 17.2875ZM11.475 18.5625C11.4375 18.9375 11.1 19.2 10.725 19.2C10.4625 19.2375 10.2 19.0125 10.1625 18.75C10.1625 18.675 10.1625 18.6375 10.1625 18.5625C10.2375 18.1875 10.5375 17.925 10.9125 17.925C11.0625 17.925 11.25 18 11.3625 18.1125C11.475 18.2625 11.5125 18.4125 11.475 18.5625ZM22.1625 17.2875H21.525C21.45 17.2875 21.4125 17.325 21.4125 17.4L21.375 17.5875L21.3375 17.5125C21.15 17.325 20.85 17.2125 20.55 17.25C19.8 17.25 19.1625 17.8125 19.0875 18.5625C19.0125 18.9 19.125 19.275 19.35 19.575C19.575 19.8 19.875 19.9125 20.175 19.9125C20.5125 19.9125 20.85 19.8 21.075 19.5375L21.0375 19.725C21.0375 19.8 21.075 19.8375 21.1125 19.8375H21.75C21.825 19.8375 21.9375 19.7625 21.9375 19.6875L22.3125 17.4375C22.3125 17.3625 22.275 17.325 22.1625 17.2875C22.2 17.325 22.2 17.325 22.1625 17.2875ZM21.2625 18.5625C21.225 18.9375 20.8875 19.2 20.5125 19.2C20.25 19.2375 19.9875 19.0125 19.95 18.75C19.95 18.675 19.95 18.6375 19.95 18.5625C20.025 18.1875 20.325 17.925 20.7 17.925C20.9625 17.8875 21.225 18.075 21.2625 18.375C21.2625 18.45 21.2625 18.4875 21.2625 18.5625ZM15.9 17.2875H15.225C15.15 17.2875 15.1125 17.325 15.075 17.3625L14.175 18.7125L13.8 17.4375C13.7625 17.3625 13.6875 17.2875 13.6125 17.2875H12.9375C12.8625 17.2875 12.825 17.325 12.825 17.4V17.4375L13.5375 19.575L12.8625 20.55C12.825 20.5875 12.825 20.6625 12.8625 20.7C12.9 20.7 12.9 20.7375 12.9375 20.7375H13.6125C13.6875 20.7375 13.725 20.7 13.7625 20.6625L15.975 17.5125C16.0125 17.475 16.0125 17.4 15.9375 17.3625C15.9375 17.325 15.9 17.2875 15.9 17.2875ZM22.95 16.125L22.3875 19.6875C22.3875 19.7625 22.425 19.8 22.5 19.8375H23.1C23.175 19.8375 23.2875 19.7625 23.2875 19.6875L23.85 16.1625C23.85 16.0875 23.8125 16.05 23.775 16.05H23.1C23.025 16.05 22.95 16.0875 22.95 16.125Z" fill="white"/>
<path opacity="0.7" d="M19.2752 6.18755C19.4252 5.28755 19.2752 4.72505 18.7877 4.16255C18.2627 3.56255 17.2877 3.30005 16.0877 3.30005H12.5627C12.3002 3.30005 12.1127 3.48755 12.0752 3.71255L10.6127 13.05C10.5752 13.2 10.6877 13.3876 10.8752 13.3876H13.1252L12.9752 14.3251C12.9377 14.475 13.0502 14.5876 13.2002 14.625H15.0752C15.3002 14.625 15.4877 14.475 15.5252 14.25V14.175L15.8627 12L15.9002 11.8876C15.9377 11.6625 16.1252 11.5126 16.3502 11.5126H16.6127C18.4127 11.5126 19.8002 10.8 20.2127 8.70005C20.4002 7.83755 20.2877 7.08755 19.8377 6.56255C19.6502 6.41255 19.4627 6.30005 19.2752 6.18755Z" fill="white"/>
<path opacity="0.5" d="M19.2752 6.18755C19.4252 5.28755 19.2752 4.72505 18.7877 4.16255C18.2627 3.56255 17.2877 3.30005 16.0877 3.30005H12.5627C12.3002 3.30005 12.1127 3.48755 12.0752 3.71255L10.6127 13.05C10.5752 13.2 10.6877 13.3875 10.8752 13.3875H13.1252L13.6877 9.90005V10.0125C13.7252 9.75005 13.9502 9.60005 14.1752 9.60005H15.2252C17.2502 9.60005 18.8627 8.77505 19.3127 6.37505C19.2377 6.30005 19.2752 6.22505 19.2752 6.18755Z" fill="white"/>
<path d="M14.2127 6.18755C14.2502 6.03755 14.3252 5.92505 14.4752 5.85005C14.5502 5.81255 14.5877 5.81255 14.6627 5.81255H17.4377C17.7377 5.81255 18.0377 5.81255 18.3377 5.88755C18.4127 5.88755 18.4877 5.92505 18.5627 5.92505L18.7877 6.00005L18.9002 6.03755C19.0127 6.07505 19.1627 6.15005 19.2752 6.18755C19.4252 5.28755 19.2752 4.68755 18.7877 4.16255C18.2627 3.56255 17.2877 3.30005 16.0877 3.30005H12.5627C12.3002 3.30005 12.1127 3.48755 12.0752 3.71255L10.6127 13.05C10.5752 13.2 10.6877 13.3875 10.8752 13.3875H13.1252L13.6877 9.90005L14.2127 6.18755Z" fill="white"/>
</g>
<defs>
<linearGradient id="paint0_linear_6323_1381" x1="2.59834" y1="-0.401663" x2="27.4017" y2="24.4017" gradientUnits="userSpaceOnUse">
<stop stop-color="#00256A"/>
<stop offset="1" stop-color="#009BDD"/>
</linearGradient>
<clipPath id="clip0_6323_1381">
<rect width="30" height="24" fill="white"/>
</clipPath>
</defs>
</svg>
