<svg width="30" height="24" viewBox="0 0 30 24" fill="none" xmlns="http://www.w3.org/2000/svg">
<g clip-path="url(#clip0_6323_1378)">
<path d="M26.25 24H3.75C1.6875 24 0 22.3125 0 20.25V3.75C0 1.6875 1.6875 0 3.75 0H26.25C28.3125 0 30 1.6875 30 3.75V20.25C30 22.3125 28.3125 24 26.25 24Z" fill="url(#paint0_linear_6323_1378)"/>
<path fill-rule="evenodd" clip-rule="evenodd" d="M20.4 9.78745C20.9625 9.78745 21.4125 9.33745 21.4125 8.77495C21.4125 8.21245 20.9625 7.76245 20.4 7.76245C19.8375 7.76245 19.3875 8.21245 19.3875 8.77495C19.3875 9.33745 19.8375 9.78745 20.4 9.78745ZM12.6375 10.35C12.375 11.1 11.9625 11.775 11.475 12.375V8.24995L9.3375 8.66245V16.1625H11.475V13.8375C11.8875 14.55 12.225 15.3375 12.4125 16.1625H14.9625C14.7 15.1125 13.6125 13.1625 13.6125 13.1625C14.2875 12.3375 14.775 11.3625 15.1125 10.35H12.6375ZM18.225 10.275C16.3125 10.35 15.3375 11.175 15.3375 12.9V16.1625H17.4V13.5C17.4 12.4875 17.55 12.0375 18.75 12V10.3125C18.5625 10.275 18.4125 10.275 18.225 10.275ZM5.775 11.175C5.5125 11.175 4.9125 11.1375 4.9125 10.575C4.9125 9.93745 5.775 9.93745 6.1125 9.93745C6.75 9.97495 7.35 10.0875 7.95 10.275C7.95 10.275 8.25 10.3875 8.5125 10.5H8.55V8.69995H8.5125C7.65 8.39995 6.7125 8.24995 5.8125 8.28745C3.45 8.24995 2.625 9.59995 2.625 10.7625C2.625 11.4375 2.925 13.0125 5.5875 13.2C5.8125 13.2 6.4125 13.2375 6.4125 13.8C6.4125 14.25 5.925 14.55 5.1 14.55C4.3125 14.55 3.525 14.4 2.775 14.1V15.9375C3.675 16.1625 4.6125 16.275 5.5125 16.2375C7.7625 16.2375 8.8125 14.9625 8.8125 13.6875C8.8125 12.2625 7.6875 11.325 5.775 11.175ZM19.3875 16.125H21.45V10.35H19.3875V16.125ZM25.3125 8.62495V16.1625H27.375V8.24995L25.3125 8.62495ZM22.3125 8.62495L24.375 8.24995V16.125H22.3125V8.62495Z" fill="white"/>
</g>
<defs>
<linearGradient id="paint0_linear_6323_1378" x1="15" y1="0" x2="15" y2="24" gradientUnits="userSpaceOnUse">
<stop stop-color="#6B195F"/>
<stop offset="1" stop-color="#4C255B"/>
</linearGradient>
<clipPath id="clip0_6323_1378">
<rect width="30" height="24" fill="white"/>
</clipPath>
</defs>
</svg>
