<svg width="30" height="24" viewBox="0 0 30 24" fill="none" xmlns="http://www.w3.org/2000/svg">
<g clip-path="url(#clip0_6323_1349)">
<path d="M26.25 24H3.75C1.6875 24 0 22.3125 0 20.25V3.75C0 1.6875 1.6875 0 3.75 0H26.25C28.3125 0 30 1.6875 30 3.75V20.25C30 22.3125 28.3125 24 26.25 24Z" fill="#005A9C"/>
<path fill-rule="evenodd" clip-rule="evenodd" d="M8.40039 13.5748C12.4879 11.7748 17.0629 11.2873 21.4129 12.2623L21.4879 10.8372C15.4879 10.1997 11.2129 12.0748 8.40039 13.4623V13.5748Z" fill="#FBAA29"/>
<path fill-rule="evenodd" clip-rule="evenodd" d="M2.8877 14.6629H5.7752V15.5254H3.9752V16.3129H5.7377V17.1379H3.9377V17.9254H5.7002V18.7879H2.8877V14.6629ZM6.48769 14.2879H7.53769V18.7879H6.48769V14.2879ZM11.1377 18.4879C10.7252 18.7879 10.2752 18.9379 9.75019 18.9379C8.92519 19.0129 8.2127 18.3754 8.1377 17.5504C8.1377 17.5129 8.1377 17.4379 8.1377 17.4004C8.1002 16.5004 8.81269 15.7504 9.75019 15.7129H9.7877C10.9502 15.7129 11.3252 16.5379 11.3252 17.5879H9.2252C9.2252 17.9254 9.52519 18.2254 9.86269 18.2254H9.93769C10.2377 18.2254 10.5377 18.1129 10.8002 17.9254L11.1377 18.4879ZM10.3877 16.9129C10.3877 16.6129 10.2377 16.3129 9.9002 16.3129C9.5627 16.3504 9.30019 16.5754 9.26269 16.9129H10.3877ZM14.5127 18.6004C14.1752 18.7879 13.8002 18.9004 13.3877 18.9004C12.4127 18.9004 11.7377 18.3379 11.7377 17.3254C11.7002 16.4254 12.3752 15.6754 13.2752 15.6379H13.4627C13.8377 15.6379 14.1752 15.7129 14.5127 15.9004L14.1752 16.5754C14.0252 16.5004 13.8752 16.4629 13.6877 16.4629C13.2377 16.4254 12.8627 16.7254 12.8252 17.1754C12.8252 17.2129 12.8252 17.2504 12.8252 17.2879C12.8252 17.7004 13.1627 18.0379 13.5752 18.0754H13.6127C13.8002 18.0754 13.9877 18.0004 14.1752 17.8879L14.5127 18.6004ZM14.8877 15.7879H15.3752V14.7379H16.3877L16.3502 15.7879H17.2127V16.5379H16.3127C16.3127 16.9504 16.2752 17.4004 16.2752 17.6629C16.2752 17.9254 16.3502 18.0379 16.5752 18.0379C16.7252 18.0379 16.8377 17.9629 16.9502 17.8879L17.1752 18.6004C16.8752 18.7879 16.5002 18.9004 16.1252 18.9004C15.3002 18.9004 15.2252 18.3754 15.2252 17.6629C15.2252 17.2879 15.2627 16.9129 15.2627 16.5004H14.8127L14.8877 15.7879ZM17.7377 15.7879H18.7877V16.2004C18.9377 15.9004 19.2377 15.7129 19.5752 15.6754C19.6877 15.6754 19.8002 15.6754 19.9127 15.7129L19.7627 16.7629C19.6502 16.7254 19.5002 16.7254 19.3877 16.6879C19.1252 16.6879 18.9002 16.8379 18.7502 17.0254V18.7879H17.7002L17.7377 15.7879ZM21.8252 15.6754C22.9502 15.6754 23.5127 16.3879 23.5127 17.2879C23.5127 18.1879 22.9502 18.9004 21.8252 18.9004C20.7002 18.9004 20.1377 18.1879 20.1377 17.2879C20.1377 16.3879 20.7002 15.6754 21.8252 15.6754ZM21.8252 18.1129C22.3127 18.1129 22.4627 17.6629 22.4627 17.2879C22.4627 16.9129 22.3127 16.4629 21.8252 16.4629C21.3377 16.4629 21.1877 16.9129 21.1877 17.2879C21.1877 17.6629 21.3002 18.1129 21.8252 18.1129ZM24.0752 15.7879H25.1252V16.1254C25.3877 15.8629 25.7252 15.7129 26.1002 15.6754C26.7377 15.6754 27.1127 16.0129 27.1127 16.8754C27.1127 17.5129 27.1127 18.1504 27.1127 18.8254H26.0627C26.0627 18.2254 26.0627 17.6629 26.0627 17.0254C26.0627 16.7629 25.9877 16.5754 25.6877 16.5754C25.4627 16.6129 25.2752 16.6879 25.1252 16.8754V18.8254H24.0752V15.7879ZM11.5127 9.52539L12.8252 5.17539H13.9877L12.6752 9.52539H11.5127ZM10.9877 5.17539L9.93769 7.01289C9.71269 7.35039 9.56269 7.68789 9.45019 8.06289C9.45019 7.68789 9.4127 7.20039 9.4127 6.93789L9.30019 5.17539H7.3127L7.2752 5.28789C7.72519 5.25039 8.13769 5.58789 8.17519 6.03789C8.17519 6.03789 8.17519 6.03789 8.17519 6.07539L8.55019 9.52539H9.75019L12.2252 5.17539H10.9877ZM20.1752 9.52539L20.1377 8.88789H18.6752L18.3752 9.52539H17.1002L19.4252 5.17539H21.0002L21.3752 9.52539H20.1752ZM20.0252 6.93789C19.9877 6.60039 19.9877 6.26289 20.0252 5.92539C19.9502 6.15039 19.6502 6.78789 19.5002 7.12539L19.0502 8.06289H20.0627L20.0252 6.93789ZM15.2627 9.63789C14.6252 9.63789 14.0252 9.48789 13.4627 9.15039L14.0252 8.28789C14.4002 8.55039 14.8502 8.70039 15.3002 8.70039C15.4877 8.73789 15.7127 8.62539 15.8252 8.43789C16.0127 8.13789 15.7877 7.98789 15.3377 7.72539L15.1127 7.57539C14.4377 7.12539 14.1377 6.67539 14.4377 5.88789C14.6252 5.40039 15.1877 5.02539 16.0877 5.02539C16.6502 5.02539 17.1752 5.25039 17.6252 5.58789L16.9877 6.33789C16.7252 6.11289 16.4252 5.96289 16.0502 5.92539C15.8627 5.88789 15.6752 6.00039 15.5627 6.15039C15.4502 6.41289 15.6002 6.56289 15.9752 6.78789L16.2377 6.97539C17.0627 7.50039 17.2502 8.02539 17.0627 8.55039C16.6877 9.48789 16.0127 9.67539 15.2627 9.63789Z" fill="white"/>
</g>
<defs>
<clipPath id="clip0_6323_1349">
<rect width="30" height="24" fill="white"/>
</clipPath>
</defs>
</svg>
