<svg width="164" height="41" viewBox="0 0 164 41" fill="none" xmlns="http://www.w3.org/2000/svg">
<path d="M53.1649 29.3684C52.3579 29.3684 51.6256 29.204 50.968 28.8752C50.3254 28.5315 49.8098 28.0607 49.4212 27.4629C49.0326 26.8651 48.8159 26.1851 48.7711 25.4229V22.2172C48.8159 21.4401 49.0326 20.7601 49.4212 20.1772C49.8247 19.5794 50.3478 19.1162 50.9904 18.7874C51.648 18.4436 52.3728 18.2718 53.1649 18.2718C54.1363 18.2718 55.0106 18.5184 55.7877 19.0115C56.5798 19.5047 57.2 20.1698 57.6484 21.0067C58.0967 21.8436 58.3209 22.7851 58.3209 23.8313C58.3209 24.8774 58.0967 25.819 57.6484 26.6559C57.2 27.4928 56.5798 28.1578 55.7877 28.651C55.0106 29.1293 54.1363 29.3684 53.1649 29.3684ZM52.8286 27.4629C53.5012 27.4629 54.0915 27.306 54.5996 26.9921C55.1077 26.6783 55.5113 26.2524 55.8101 25.7143C56.109 25.1614 56.2585 24.5262 56.2585 23.8089C56.2585 23.1065 56.109 22.4788 55.8101 21.9258C55.5113 21.3728 55.1077 20.9469 54.5996 20.648C54.0915 20.3342 53.5086 20.1772 52.8511 20.1772C52.1785 20.1772 51.5882 20.3342 51.0801 20.648C50.572 20.9469 50.1759 21.3728 49.892 21.9258C49.608 22.4788 49.466 23.1139 49.466 23.8313C49.466 24.5337 49.6005 25.1614 49.8695 25.7143C50.1535 26.2524 50.5495 26.6783 51.0577 26.9921C51.5807 27.306 52.1711 27.4629 52.8286 27.4629ZM47.5605 29.1442V13.1382H49.5781V21.0964L49.197 23.6744L49.5781 26.2748V29.1442H47.5605Z" fill="white"/>
<path d="M65.54 29.3684C64.4789 29.3684 63.5224 29.1293 62.6706 28.651C61.8187 28.1578 61.1462 27.4928 60.653 26.6559C60.1598 25.819 59.9132 24.87 59.9132 23.8089C59.9132 22.7627 60.1524 21.8212 60.6306 20.9843C61.1238 20.1474 61.7813 19.4898 62.6033 19.0115C63.4402 18.5184 64.3743 18.2718 65.4055 18.2718C66.3919 18.2718 67.2587 18.4959 68.0059 18.9443C68.7681 19.3926 69.3584 20.0129 69.7769 20.8049C70.2103 21.597 70.427 22.4937 70.427 23.495C70.427 23.6445 70.4195 23.8089 70.4046 23.9882C70.3896 24.1526 70.3597 24.3469 70.3149 24.5711H61.3255V22.8898H69.2389L68.4991 23.5399C68.4991 22.8225 68.3721 22.2172 68.118 21.724C67.8639 21.2159 67.5053 20.8274 67.042 20.5583C66.5787 20.2744 66.0182 20.1324 65.3607 20.1324C64.6732 20.1324 64.0679 20.2819 63.5449 20.5808C63.0218 20.8797 62.6183 21.2981 62.3343 21.8361C62.0504 22.3742 61.9084 23.0093 61.9084 23.7416C61.9084 24.4889 62.0578 25.1464 62.3567 25.7143C62.6556 26.2673 63.0816 26.7007 63.6345 27.0146C64.1875 27.3135 64.8226 27.4629 65.54 27.4629C66.1378 27.4629 66.6833 27.3583 67.1765 27.1491C67.6846 26.9398 68.118 26.626 68.4767 26.2075L69.7769 27.5302C69.2688 28.128 68.6411 28.5838 67.8938 28.8976C67.1615 29.2115 66.3769 29.3684 65.54 29.3684Z" fill="white"/>
<path d="M76.0119 29.3684C75.4141 29.3684 74.8462 29.2937 74.3082 29.1442C73.7851 28.9798 73.2994 28.7556 72.851 28.4717C72.4027 28.1728 72.0141 27.8216 71.6853 27.4181L72.9856 26.1179C73.3741 26.5961 73.8225 26.9548 74.3306 27.1939C74.8387 27.4181 75.4066 27.5302 76.0343 27.5302C76.662 27.5302 77.1477 27.4255 77.4914 27.2163C77.8352 26.9921 78.007 26.6858 78.007 26.2972C78.007 25.9086 77.8651 25.6097 77.5811 25.4005C77.3121 25.1763 76.9609 24.997 76.5275 24.8625C76.0941 24.713 75.6308 24.5711 75.1376 24.4366C74.6594 24.2871 74.2036 24.1003 73.7702 23.8761C73.3368 23.6519 72.9781 23.3456 72.6941 22.957C72.4251 22.5684 72.2906 22.0528 72.2906 21.4102C72.2906 20.7676 72.4475 20.2146 72.7614 19.7513C73.0752 19.2731 73.5086 18.9069 74.0616 18.6529C74.6295 18.3988 75.3095 18.2718 76.1016 18.2718C76.9385 18.2718 77.6783 18.4212 78.3209 18.7201C78.9785 19.0041 79.5165 19.4375 79.9349 20.0203L78.6347 21.3205C78.3358 20.932 77.9622 20.6331 77.5139 20.4238C77.0805 20.2146 76.5873 20.11 76.0343 20.11C75.4515 20.11 75.0031 20.2146 74.6893 20.4238C74.3904 20.6181 74.2409 20.8946 74.2409 21.2533C74.2409 21.612 74.3754 21.8884 74.6444 22.0827C74.9135 22.277 75.2647 22.4414 75.6981 22.5759C76.1464 22.7104 76.6097 22.8524 77.0879 23.0018C77.5662 23.1363 78.022 23.3232 78.4554 23.5623C78.8888 23.8014 79.24 24.1227 79.509 24.5262C79.793 24.9297 79.9349 25.4603 79.9349 26.1179C79.9349 27.1192 79.5763 27.9112 78.8589 28.4941C78.1565 29.077 77.2075 29.3684 76.0119 29.3684Z" fill="white"/>
<path d="M83.8301 29.1442V14.0349H85.8477V29.1442H83.8301ZM81.2073 20.3342V18.4959H88.4705V20.3342H81.2073Z" fill="white"/>
<path d="M96.0513 29.3684C95.2443 29.3684 94.512 29.204 93.8544 28.8752C93.2118 28.5315 92.6962 28.0607 92.3076 27.4629C91.919 26.8651 91.7023 26.1851 91.6575 25.4229V22.2172C91.7023 21.4401 91.919 20.7601 92.3076 20.1772C92.7111 19.5794 93.2342 19.1162 93.8768 18.7874C94.5344 18.4436 95.2592 18.2718 96.0513 18.2718C97.0227 18.2718 97.897 18.5184 98.6741 19.0115C99.4662 19.5047 100.086 20.1698 100.535 21.0067C100.983 21.8436 101.207 22.7851 101.207 23.8313C101.207 24.8774 100.983 25.819 100.535 26.6559C100.086 27.4928 99.4662 28.1578 98.6741 28.651C97.897 29.1293 97.0227 29.3684 96.0513 29.3684ZM95.715 27.4629C96.3876 27.4629 96.9779 27.306 97.486 26.9921C97.9941 26.6783 98.3977 26.2524 98.6966 25.7143C98.9955 25.1614 99.1449 24.5262 99.1449 23.8089C99.1449 23.1065 98.9955 22.4788 98.6966 21.9258C98.3977 21.3728 97.9941 20.9469 97.486 20.648C96.9779 20.3342 96.395 20.1772 95.7375 20.1772C95.0649 20.1772 94.4746 20.3342 93.9665 20.648C93.4584 20.9469 93.0623 21.3728 92.7784 21.9258C92.4944 22.4788 92.3524 23.1139 92.3524 23.8313C92.3524 24.5337 92.4869 25.1614 92.7559 25.7143C93.0399 26.2524 93.4359 26.6783 93.9441 26.9921C94.4671 27.306 95.0575 27.4629 95.715 27.4629ZM90.447 29.1442V13.1382H92.4645V21.0964L92.0834 23.6744L92.4645 26.2748V29.1442H90.447Z" fill="white"/>
<path d="M108.359 29.3684C107.313 29.3684 106.371 29.1218 105.535 28.6286C104.698 28.1354 104.033 27.4704 103.539 26.6335C103.046 25.7816 102.8 24.8326 102.8 23.7864C102.8 22.7552 103.046 21.8287 103.539 21.0067C104.033 20.1698 104.698 19.5047 105.535 19.0115C106.371 18.5184 107.313 18.2718 108.359 18.2718C109.39 18.2718 110.324 18.5184 111.161 19.0115C112.013 19.4898 112.686 20.1474 113.179 20.9843C113.672 21.8212 113.919 22.7552 113.919 23.7864C113.919 24.8326 113.672 25.7816 113.179 26.6335C112.686 27.4704 112.013 28.1354 111.161 28.6286C110.324 29.1218 109.39 29.3684 108.359 29.3684ZM108.359 27.4181C109.032 27.4181 109.629 27.2611 110.153 26.9473C110.676 26.6335 111.087 26.2075 111.386 25.6695C111.684 25.1165 111.834 24.4889 111.834 23.7864C111.834 23.099 111.677 22.4862 111.363 21.9482C111.064 21.4102 110.653 20.9917 110.13 20.6928C109.622 20.379 109.032 20.2221 108.359 20.2221C107.687 20.2221 107.089 20.379 106.566 20.6928C106.043 20.9917 105.632 21.4102 105.333 21.9482C105.034 22.4862 104.884 23.099 104.884 23.7864C104.884 24.4889 105.034 25.1165 105.333 25.6695C105.632 26.2075 106.043 26.6335 106.566 26.9473C107.089 27.2611 107.687 27.4181 108.359 27.4181Z" fill="white"/>
<path d="M121.057 29.3684C120.01 29.3684 119.069 29.1218 118.232 28.6286C117.395 28.1354 116.73 27.4704 116.237 26.6335C115.744 25.7816 115.497 24.8326 115.497 23.7864C115.497 22.7552 115.744 21.8287 116.237 21.0067C116.73 20.1698 117.395 19.5047 118.232 19.0115C119.069 18.5184 120.01 18.2718 121.057 18.2718C122.088 18.2718 123.022 18.5184 123.859 19.0115C124.711 19.4898 125.383 20.1474 125.876 20.9843C126.369 21.8212 126.616 22.7552 126.616 23.7864C126.616 24.8326 126.369 25.7816 125.876 26.6335C125.383 27.4704 124.711 28.1354 123.859 28.6286C123.022 29.1218 122.088 29.3684 121.057 29.3684ZM121.057 27.4181C121.729 27.4181 122.327 27.2611 122.85 26.9473C123.373 26.6335 123.784 26.2075 124.083 25.6695C124.382 25.1165 124.531 24.4889 124.531 23.7864C124.531 23.099 124.374 22.4862 124.06 21.9482C123.762 21.4102 123.351 20.9917 122.827 20.6928C122.319 20.379 121.729 20.2221 121.057 20.2221C120.384 20.2221 119.786 20.379 119.263 20.6928C118.74 20.9917 118.329 21.4102 118.03 21.9482C117.731 22.4862 117.582 23.099 117.582 23.7864C117.582 24.4889 117.731 25.1165 118.03 25.6695C118.329 26.2075 118.74 26.6335 119.263 26.9473C119.786 27.2611 120.384 27.4181 121.057 27.4181Z" fill="white"/>
<path d="M135.704 29.1442L130.728 23.6968L135.659 18.4959H138.103L132.611 24.2348L132.7 23.0691L138.305 29.1442H135.704ZM128.889 29.1442V13.1382H130.907V29.1442H128.889Z" fill="white"/>
<path d="M139.683 29.1442V18.4959H141.7V29.1442H139.683ZM140.691 16.3663C140.318 16.3663 140.011 16.2467 139.772 16.0076C139.533 15.7535 139.414 15.4397 139.414 15.0661C139.414 14.7074 139.533 14.4085 139.772 14.1694C140.011 13.9153 140.318 13.7883 140.691 13.7883C141.065 13.7883 141.371 13.9153 141.61 14.1694C141.85 14.4085 141.969 14.7074 141.969 15.0661C141.969 15.4397 141.85 15.7535 141.61 16.0076C141.371 16.2467 141.065 16.3663 140.691 16.3663Z" fill="white"/>
<path d="M149.605 29.3684C148.544 29.3684 147.588 29.1293 146.736 28.651C145.884 28.1578 145.211 27.4928 144.718 26.6559C144.225 25.819 143.978 24.87 143.978 23.8089C143.978 22.7627 144.218 21.8212 144.696 20.9843C145.189 20.1474 145.847 19.4898 146.669 19.0115C147.505 18.5184 148.44 18.2718 149.471 18.2718C150.457 18.2718 151.324 18.4959 152.071 18.9443C152.833 19.3926 153.424 20.0129 153.842 20.8049C154.276 21.597 154.492 22.4937 154.492 23.495C154.492 23.6445 154.485 23.8089 154.47 23.9882C154.455 24.1526 154.425 24.3469 154.38 24.5711H145.391V22.8898H153.304L152.564 23.5399C152.564 22.8225 152.437 22.2172 152.183 21.724C151.929 21.2159 151.57 20.8274 151.107 20.5583C150.644 20.2744 150.083 20.1324 149.426 20.1324C148.738 20.1324 148.133 20.2819 147.61 20.5808C147.087 20.8797 146.684 21.2981 146.4 21.8361C146.116 22.3742 145.974 23.0093 145.974 23.7416C145.974 24.4889 146.123 25.1464 146.422 25.7143C146.721 26.2673 147.147 26.7007 147.7 27.0146C148.253 27.3135 148.888 27.4629 149.605 27.4629C150.203 27.4629 150.749 27.3583 151.242 27.1491C151.75 26.9398 152.183 26.626 152.542 26.2075L153.842 27.5302C153.334 28.128 152.706 28.5838 151.959 28.8976C151.227 29.2115 150.442 29.3684 149.605 29.3684Z" fill="white"/>
<path d="M160.077 29.3684C159.479 29.3684 158.911 29.2937 158.373 29.1442C157.85 28.9798 157.365 28.7556 156.916 28.4717C156.468 28.1728 156.079 27.8216 155.751 27.4181L157.051 26.1179C157.439 26.5961 157.888 26.9548 158.396 27.1939C158.904 27.4181 159.472 27.5302 160.1 27.5302C160.727 27.5302 161.213 27.4255 161.557 27.2163C161.9 26.9921 162.072 26.6858 162.072 26.2972C162.072 25.9086 161.93 25.6097 161.646 25.4005C161.377 25.1763 161.026 24.997 160.593 24.8625C160.159 24.713 159.696 24.5711 159.203 24.4366C158.725 24.2871 158.269 24.1003 157.835 23.8761C157.402 23.6519 157.043 23.3456 156.759 22.957C156.49 22.5684 156.356 22.0528 156.356 21.4102C156.356 20.7676 156.513 20.2146 156.827 19.7513C157.14 19.2731 157.574 18.9069 158.127 18.6529C158.695 18.3988 159.375 18.2718 160.167 18.2718C161.004 18.2718 161.743 18.4212 162.386 18.7201C163.044 19.0041 163.582 19.4375 164 20.0203L162.7 21.3205C162.401 20.932 162.027 20.6331 161.579 20.4238C161.146 20.2146 160.653 20.11 160.1 20.11C159.517 20.11 159.068 20.2146 158.755 20.4238C158.456 20.6181 158.306 20.8946 158.306 21.2533C158.306 21.612 158.441 21.8884 158.71 22.0827C158.979 22.277 159.33 22.4414 159.763 22.5759C160.212 22.7104 160.675 22.8524 161.153 23.0018C161.631 23.1363 162.087 23.3232 162.521 23.5623C162.954 23.8014 163.305 24.1227 163.574 24.5262C163.858 24.9297 164 25.4603 164 26.1179C164 27.1192 163.642 27.9112 162.924 28.4941C162.222 29.077 161.273 29.3684 160.077 29.3684Z" fill="white"/>
<path d="M20.398 0.758789C24.38 0.758789 28.2726 1.91228 31.5835 4.07341C34.8945 6.23453 37.475 9.30622 38.9989 12.9C40.5227 16.4939 40.9214 20.4484 40.1446 24.2636C39.3677 28.0788 37.4502 31.5832 34.6345 34.3338C31.8188 37.0844 28.2314 38.9576 24.3259 39.7165C20.4204 40.4753 16.3722 40.0859 12.6933 38.5973C9.01443 37.1086 5.87002 34.5878 3.65774 31.3534C1.44545 28.1191 0.264648 24.3165 0.264648 20.4266C0.264648 15.2104 2.38584 10.2078 6.16158 6.51935C9.93732 2.83093 15.0583 0.758789 20.398 0.758789Z" fill="white"/>
<path d="M20.3986 10.2043C18.329 10.2043 16.3059 10.8039 14.5851 11.9271C12.8643 13.0503 11.5231 14.6468 10.7311 16.5146C9.9391 18.3824 9.73188 20.4378 10.1356 22.4206C10.5394 24.4035 11.536 26.2249 12.9994 27.6545C14.4629 29.0841 16.3274 30.0577 18.3572 30.4521C20.387 30.8465 22.491 30.6441 24.4031 29.8704C26.3151 29.0967 27.9494 27.7865 29.0992 26.1055C30.249 24.4245 30.8627 22.4482 30.8627 20.4264C30.8631 19.0839 30.5926 17.7546 30.0669 16.5142C29.5411 15.2738 28.7704 14.1468 27.7986 13.1976C26.8269 12.2483 25.6732 11.4953 24.4035 10.9818C23.1338 10.4682 21.7729 10.204 20.3986 10.2043Z" fill="white"/>
<path d="M24.4671 1.1626C28.7103 2.02626 32.5548 4.2045 35.4292 7.37348L31.8741 10.0752C29.7295 7.80186 26.9284 6.21888 23.8419 5.53609L24.4671 1.1626ZM8.92202 10.0752C11.0666 7.80186 13.8677 6.21888 16.9542 5.53609L16.329 1.1626C12.0859 2.02626 8.24131 4.2045 5.36689 7.37348L8.92202 10.0752ZM39.5036 14.2391L35.3286 15.8953C36.2599 18.846 36.2599 22.0022 35.3286 24.9529L39.5036 26.6091C40.8741 22.5927 40.8741 18.2503 39.5036 14.2339V14.2391ZM31.8741 30.8014C29.7263 33.0662 26.9255 34.6409 23.8419 35.3173L24.4618 39.6908C28.705 38.8271 32.5495 36.6489 35.4239 33.4799L31.8741 30.8014ZM16.9542 35.3173C13.8677 34.6345 11.0666 33.0515 8.92202 30.7781L5.36689 33.4928C8.24131 36.6618 12.0859 38.84 16.329 39.7037L16.9542 35.3173ZM5.47285 24.9658C4.54148 22.0152 4.54148 18.8589 5.47285 15.9083L1.29253 14.2391C-0.0779779 18.2555 -0.0779779 22.5978 1.29253 26.6143L5.47285 24.9658Z" fill="#0EEDC7"/>
<path d="M5.36689 7.3603C8.24131 4.19131 12.0859 2.01308 16.329 1.14941L16.4403 1.92577C12.4017 2.75747 8.7414 4.82957 5.99473 7.83905L5.36689 7.3603ZM39.5036 14.2388L38.7671 14.5313C40.0599 18.3599 40.0599 22.4929 38.7671 26.3216L39.5036 26.614C40.8741 22.5976 40.8741 18.2553 39.5036 14.2388ZM24.3559 1.93354C28.3934 2.76313 32.0536 4.83244 34.8014 7.83905L35.4292 7.3603C32.5548 4.19131 28.7103 2.01308 24.4671 1.14941L24.3559 1.93354ZM34.8014 33.0138C32.0536 36.0204 28.3934 38.0897 24.3559 38.9193L24.4671 39.6957C28.7103 38.832 32.5548 36.6538 35.4292 33.4848L34.8014 33.0138ZM2.02899 26.3216C0.736175 22.4929 0.736175 18.3599 2.02899 14.5313L1.29253 14.2388C-0.0779779 18.2553 -0.0779779 22.5976 1.29253 26.614L2.02899 26.3216ZM16.4403 38.9193C12.4027 38.0897 8.74254 36.0204 5.99473 33.0138L5.36689 33.4926C8.24131 36.6616 12.0859 38.8398 16.329 39.7035L16.4403 38.9193Z" fill="#BCF2E9"/>
<path d="M20.3748 35.6948C16.2305 35.6917 12.2572 34.0809 9.3284 31.2166C6.39964 28.3523 4.75526 24.469 4.75684 20.4206C4.75842 16.3721 6.40583 12.49 9.33683 9.62792C12.2678 6.76579 16.2424 5.15796 20.3867 5.15796C24.531 5.15796 28.5056 6.76579 31.4366 9.62792C34.3676 12.49 36.015 16.3721 36.0166 20.4206C36.0182 24.469 34.3738 28.3523 31.445 31.2166C28.5163 34.0809 24.5429 35.6917 20.3986 35.6948H20.3748ZM20.3986 10.4631C18.3814 10.4631 16.4095 11.0474 14.7323 12.1422C13.055 13.237 11.7478 14.793 10.9758 16.6136C10.2039 18.4341 10.0019 20.4374 10.3954 22.3701C10.789 24.3028 11.7604 26.0781 13.1867 27.4715C14.6131 28.8649 16.4304 29.8138 18.4089 30.1982C20.3873 30.5827 22.438 30.3853 24.3017 29.6312C26.1653 28.8771 27.7582 27.6001 28.8789 25.9617C29.9996 24.3232 30.5978 22.3969 30.5978 20.4264C30.595 17.7848 29.5195 15.2522 27.6074 13.3843C25.6953 11.5164 23.1028 10.4658 20.3986 10.4631Z" fill="#BCF2E9"/>
<path d="M31.655 9.46443C30.185 8.01547 28.4353 6.86588 26.5072 6.08228C24.5791 5.29867 22.511 4.89662 20.4227 4.89943H20.3989C16.1833 4.89634 12.1392 6.52928 9.1561 9.43901C6.17301 12.3487 4.49535 16.2969 4.49219 20.415C4.48903 24.5331 6.16062 28.4837 9.13924 31.3978C12.1179 34.3119 16.1595 35.9507 20.3751 35.9538H20.3989C23.5404 35.9537 26.6114 35.0442 29.2241 33.3401C31.8368 31.636 33.874 29.2139 35.0784 26.3795C36.2828 23.5452 36.6004 20.4257 35.9911 17.4151C35.3818 14.4045 33.873 11.6378 31.655 9.46443ZM20.3989 35.4363H20.3751C16.3 35.4332 12.3931 33.8488 9.51388 31.0318C6.63463 28.2148 5.01886 24.3958 5.02202 20.415C5.02518 16.4342 6.64701 12.6177 9.53074 9.80499C12.4145 6.99232 16.3239 5.41391 20.3989 5.417H20.4227C24.4978 5.42009 28.4047 7.00442 31.2839 9.82146C34.1632 12.6385 35.7789 16.4575 35.7758 20.4383C35.7726 24.4191 34.1508 28.2356 31.267 31.0483C28.3833 33.8609 24.4739 35.4393 20.3989 35.4363Z" fill="#22C1A7"/>
<mask id="mask0_6301_19163" style="mask-type:luminance" maskUnits="userSpaceOnUse" x="10" y="10" width="21" height="21">
<path d="M20.3991 10.7219C18.4343 10.7219 16.5136 11.2911 14.8799 12.3574C13.2462 13.4238 11.9729 14.9394 11.221 16.7127C10.4691 18.4859 10.2724 20.4372 10.6557 22.3197C11.039 24.2022 11.9852 25.9313 13.3745 27.2885C14.7638 28.6457 16.534 29.57 18.461 29.9445C20.3881 30.3189 22.3855 30.1267 24.2008 29.3922C26.016 28.6577 27.5675 27.4139 28.6591 25.818C29.7507 24.2221 30.3333 22.3458 30.3333 20.4264C30.3333 17.8526 29.2867 15.3843 27.4237 13.5643C25.5606 11.7444 23.0338 10.7219 20.3991 10.7219Z" fill="white"/>
</mask>
<g mask="url(#mask0_6301_19163)">
<path d="M20.4 28.0452C20.4 28.0452 26.6254 23.7002 27.5712 20.1031C27.9315 18.7341 27.8891 16.5655 26.289 15.1577C25.8955 14.8162 25.4322 14.5605 24.9298 14.4074C24.4274 14.2544 23.8973 14.2075 23.375 14.27C22.2411 14.3554 21.1417 15.168 20.3973 16.3403C19.6529 15.1784 18.5429 14.3658 17.4197 14.27C16.8973 14.2075 16.3673 14.2544 15.8649 14.4074C15.3624 14.5605 14.8991 14.8162 14.5057 15.1577C12.9162 16.5655 12.8632 18.7341 13.2235 20.1031C14.1745 23.7002 20.4 28.0452 20.4 28.0452Z" fill="#0EEDC7"/>
</g>
<path d="M20.3983 1.01757C24.3279 1.01757 28.1693 2.15589 31.4366 4.28858C34.704 6.42127 37.2506 9.45254 38.7544 12.9991C40.2582 16.5456 40.6516 20.4481 39.885 24.2131C39.1184 27.9781 37.2261 31.4364 34.4474 34.1508C31.6688 36.8652 28.1286 38.7137 24.2745 39.4626C20.4204 40.2115 16.4255 39.8272 12.795 38.3582C9.16449 36.8891 6.06145 34.4014 3.87828 31.2096C1.6951 28.0178 0.529835 24.2653 0.529835 20.4266C0.529835 15.279 2.62312 10.3422 6.34918 6.70234C10.0752 3.06244 15.1289 1.01757 20.3983 1.01757ZM20.3983 0.5C16.3639 0.5 12.4201 1.66867 9.06562 3.85823C5.71114 6.04779 3.09664 9.1599 1.55274 12.801C0.00883826 16.4421 -0.395116 20.4487 0.391957 24.3141C1.17903 28.1794 3.12178 31.73 5.97453 34.5168C8.82729 37.3036 12.4619 39.2014 16.4188 39.9703C20.3757 40.7391 24.4771 40.3445 28.2044 38.8363C31.9317 37.3281 35.1175 34.7741 37.3589 31.4972C39.6003 28.2203 40.7966 24.3677 40.7966 20.4266C40.791 15.1434 38.6401 10.0782 34.8159 6.34241C30.9917 2.60664 25.8066 0.50548 20.3983 0.5Z" fill="#22C1A7"/>
</svg>
